# xmcd
#
# Track frame offsets: 
#        150
#        17917
#        36647
#        58422
#        78977
#        102575
#        119862
#        140642
#
# Disc length: 2174 seconds
#
# Revision: 2
# Processed by: cddbd v1.5.2PL0 Copyright (c) Steve Scherf et al.
# Submitted via: ExactAudioCopyFreeDBPlugin 1.0
#
DISCID=7f087c08
DTITLE=Active Force - Active Force
DYEAR=1983
DGENRE=Funk
TTITLE0=Keep On Rockin'
TTITLE1=Cold Blooded Lover
TTITLE2=I Never Thought I'd Love Again
TTITLE3=Coo Coo Kachu
TTITLE4=Give Me Your Love
TTITLE5=Bottom Line
TTITLE6=Rise Up
TTITLE7=My Sunshine
EXTD=
EXTT0=
EXTT1=
EXTT2=
EXTT3=
EXTT4=
EXTT5=
EXTT6=
EXTT7=
PLAYORDER=
